Coordinates
version=1
nRows=49
nColumns=12
inDegrees=yes

Units are S.I. units (second, meters, Newtons, ...)
Angles are in degrees

endheader
time	SC_y	SC_z	SC_x	AC_y	AC_z	AC_x	GH_y	GH_z	GH_yy	EL_x	PS_y
       0.0              -31.64          3.069          64.51          39.17          6.025          9.871          1.521          85.11          149.6          127.7          15.31
   0.03908              -31.63          3.074           64.5          39.18          6.025           9.87          1.496           85.1          149.6          127.7          15.32
   0.07816              -31.63           3.08          64.49          39.18          6.025           9.87           1.47          85.09          149.6          127.7          15.33
    0.1172              -31.63          3.086          64.48          39.18          6.025          9.869          1.443          85.07          149.6          127.7          15.35
    0.1563              -31.63          3.092          64.47          39.19          6.025          9.869          1.414          85.06          149.5          127.7          15.37
    0.1954              -31.63          3.099          64.46          39.19          6.026          9.868          1.382          85.04          149.5          127.6          15.38
    0.2345              -31.62          3.107          64.45          39.19          6.026          9.868          1.349          85.03          149.5          127.6           15.4
    0.2736              -31.62          3.114          64.44           39.2          6.026          9.867          1.313          85.01          149.4          127.6          15.42
    0.3127              -31.62          3.123          64.42           39.2          6.026          9.866          1.275          84.99          149.4          127.6          15.45
    0.3517              -31.61          3.132          64.41           39.2          6.027          9.866          1.234          84.97          149.4          127.5          15.47
    0.3908              -31.61          3.141          64.39          39.21          6.027          9.865           1.19          84.94          149.3          127.5          15.49
    0.4299              -31.61          3.152          64.38          39.21          6.027          9.864          1.143          84.92          149.3          127.5          15.52
     0.469               -31.6          3.163          64.36          39.22          6.028          9.863          1.092          84.89          149.3          127.4          15.55
    0.5081               -31.6          3.175          64.34          39.23          6.028          9.862          1.037          84.86          149.2          127.4          15.58
    0.5471              -31.59          3.188          64.32          39.23          6.029          9.861         0.9775          84.83          149.2          127.4          15.61
    0.5862              -31.59          3.203           64.3          39.24          6.029           9.86         0.9128           84.8          149.1          127.3          15.65
    0.6253              -31.58          3.218          64.27          39.25           6.03          9.859         0.8426          84.76          149.1          127.3          15.69
    0.6644              -31.58          3.235          64.24          39.26           6.03          9.858          0.766          84.73          149.0          127.2          15.73
    0.7035              -31.57          3.253          64.22          39.26          6.031          9.856         0.6825          84.68          148.9          127.2          15.78
    0.7426              -31.57          3.273          64.18          39.27          6.032          9.855          0.591          84.64          148.9          127.1          15.83
    0.7816              -31.56          3.296          64.15          39.28          6.033          9.853         0.4905          84.58          148.8          127.0          15.89
    0.8207              -31.55           3.32          64.11           39.3          6.033          9.851         0.3799          84.53          148.7          126.9          15.95
    0.8598              -31.54          3.347          64.07          39.31          6.034          9.849         0.2578          84.46          148.6          126.9          16.02
    0.8989              -31.53          3.377          64.02          39.32          6.035          9.847         0.1225          84.39          148.5          126.8           16.1
     0.938              -31.52           3.41          63.97          39.34          6.037          9.844       -0.02799          84.32          148.4          126.7          16.19
     0.977              -31.51          3.447          63.91          39.36          6.038          9.842        -0.1959          84.23          148.2          126.6          16.28
     1.016              -31.49          3.488          63.84          39.38          6.039          9.838        -0.3839          84.13          148.1          126.4          16.39
     1.055              -31.48          3.535          63.77           39.4          6.041          9.835        -0.5954          84.02          147.9          126.3          16.51
     1.094              -31.46          3.587          63.69          39.43          6.043          9.831        -0.8345           83.9          147.7          126.1          16.64
     1.133              -31.44          3.647          63.59          39.46          6.045          9.826         -1.106          83.76          147.5          125.9           16.8
     1.172              -31.41          3.715          63.48          39.49          6.047          9.821         -1.416           83.6          147.3          125.7          16.97
     1.212              -31.39          3.793          63.36          39.53           6.05          9.815         -1.771          83.42          147.0          125.5          17.18
     1.251              -31.35          3.884          63.22          39.57          6.053          9.808         -2.182          83.21          146.6          125.2          17.41
      1.29              -31.32          3.989          63.05          39.62          6.057            9.8         -2.658          82.96          146.3          124.9          17.68
     1.329              -31.28          4.112          62.86          39.68          6.061           9.79         -3.216          82.68          145.8          124.5           18.0
     1.368              -31.23          4.256          62.63          39.75          6.066          9.779         -3.874          82.34          145.3          124.1          18.37
     1.407              -31.17          4.428          62.35          39.84          6.073          9.766         -4.656          81.93          144.7          123.5          18.81
     1.446               -31.1          4.635          62.03          39.94           6.08           9.75         -5.593          81.45          143.9          122.9          19.35
     1.485              -31.01          4.884          61.63          40.06          6.089          9.731         -6.727          80.87          143.0          122.1          19.99
     1.524               -30.9          5.189          61.15          40.21          6.099          9.707         -8.111          80.15          141.9          121.2          20.78
     1.563              -30.77          5.565          60.55          40.39          6.113          9.679         -9.821          79.27          140.5          120.0          21.75
     1.602              -30.61          6.034          59.81          40.62          6.129          9.642         -11.95          78.18          138.8          118.6          22.96
     1.641              -30.41          6.625          58.87          40.91           6.15          9.597         -14.64           76.8          136.6          116.7          24.48
     1.681              -30.15          7.377          57.68          41.28          6.177          9.539         -18.05          75.04          133.9          114.4          26.42
      1.72              -29.82          8.338          56.16          41.74          6.211          9.465         -22.42          72.79          130.4          111.5           28.9
     1.759              -29.39          9.572           54.2          42.35          6.254           9.37         -28.02           69.9          125.9          107.7          32.09
     1.798              -28.85          11.15          51.71          43.11           6.31          9.249         -35.19          66.22          120.2          102.8          36.16
     1.837              -28.16          13.13          48.57          44.08           6.38          9.096         -44.19          61.58          112.9          96.68          41.27
     1.876              -27.33          15.55          44.74          45.26          6.465          8.911         -55.16          55.93          104.1          89.23           47.5
